<?xml version="1.0" encoding="utf-8"?>
<!-- Generator: Adobe Illustrator 23.0.0, SVG Export Plug-In . SVG Version: 6.00 Build 0)  -->
<svg version="1.1" xmlns="http://www.w3.org/2000/svg" xmlns:xlink="http://www.w3.org/1999/xlink" x="0px" y="0px"
	 viewBox="0 0 1222.2 361.8" style="enable-background:new 0 0 1222.2 361.8;" xml:space="preserve">
<style type="text/css">
	.st0{fill:none;stroke:#9B999E;stroke-width:0.5;stroke-miterlimit:10;}
	.st1{fill:none;stroke:#9B999E;stroke-width:0.75;stroke-miterlimit:10;}
	.st2{fill:#F978E9;}
	.st3{fill:#6101D1;}
	.st4{fill:#4E008E;}
	.st5{fill:#FFFFFF;}
	.st6{fill:#39007C;}
	.st7{fill:#5F01D1;}
	.st8{fill:#7646FF;}
	.st9{fill:#7F1FFF;}
	.st10{fill:#10D3CD;}
	.st11{fill:#0E69FF;}
	.st12{fill:#FEA700;}
	.st13{fill:#FF0080;}
</style>
<g id="Capa_2">
</g>
<g id="Capa_3">
</g>
<g id="Capa_1">
	<g>
		<g>
			<path class="st5" d="M241.6,130.2c2.4-8.7,7.1-15.4,14.1-20.2c7-4.8,15.1-7.2,24.3-7.2V154c-10.2-1.4-19.2,0.6-26.8,6
				c-7.7,5.4-11.5,13.9-11.5,25.7v47.5h-47.3V105.4h47.3V130.2z"/>
			<path class="st5" d="M372.3,105.4h47.3v127.8h-47.3v-12.5c-7.8,10.7-19.3,16.1-34.3,16.1c-14,0-25.2-4.8-33.6-14.4
				c-8.4-9.6-12.7-24-12.7-43.1v-73.9H339v68.8c0,11.4,5.3,17.1,15.8,17.1c5.6,0,9.9-1.8,12.9-5.4c3-3.6,4.5-8.5,4.5-14.8V105.4z"/>
			<path class="st5" d="M513.6,101.8c17.2,0,31.3,6.4,42.2,19.2c10.9,12.8,16.4,28.9,16.4,48.3s-5.5,35.5-16.4,48.3
				c-10.9,12.8-25,19.2-42.2,19.2c-14.7,0-26.1-5-34.3-15.1v62.6H432V105.4h47.3v11.5C487.5,106.8,498.9,101.8,513.6,101.8z
				 M485.6,186.4c4.2,4.6,9.7,6.9,16.5,6.9c6.8,0,12.3-2.3,16.5-6.9c4.2-4.6,6.3-10.3,6.3-17.1c0-6.8-2.1-12.5-6.3-17.1
				c-4.2-4.6-9.7-6.9-16.5-6.9c-6.8,0-12.3,2.3-16.5,6.9c-4.2,4.6-6.3,10.3-6.3,17.1C479.3,176.1,481.4,181.8,485.6,186.4z"/>
			<path class="st5" d="M651.1,236.8c-19.1,0-35.3-6.5-48.7-19.4c-13.4-12.9-20.1-29-20.1-48.1c0-19.1,6.6-35.1,19.9-48.1
				c13.3-12.9,29.6-19.4,48.8-19.4c19.3,0,35.5,6.5,48.8,19.4c13.3,13,19.9,29,19.9,48.1c0,19.1-6.6,35.1-19.9,48.1
				C686.6,230.3,670.3,236.8,651.1,236.8z M635.6,185.5c4,4.2,9.2,6.3,15.5,6.3c6.3,0,11.5-2.1,15.5-6.3c4-4.2,6-9.6,6-16.2
				s-2-12.1-6-16.2c-4-4.2-9.2-6.3-15.5-6.3c-6.3,0-11.5,2.1-15.5,6.3c-4,4.2-6,9.6-6,16.2S631.6,181.4,635.6,185.5z"/>
			<path class="st5" d="M780.6,143c0,2,1.6,3.7,4.7,4.9c3.2,1.2,7.1,2.1,11.9,2.7c4.8,0.6,9.9,1.7,15.3,3.5
				c5.5,1.7,10.6,3.8,15.3,6.4c4.8,2.6,8.7,6.6,11.9,12.1c3.2,5.5,4.7,12.2,4.7,20.1c0,8.2-1.8,15.3-5.5,21.5
				c-3.7,6.1-8.5,10.7-14.4,13.8c-6,3.1-12.1,5.3-18.3,6.8c-6.2,1.4-12.7,2.2-19.3,2.2c-30.8,0-50.8-10.1-59.8-30.4l41.2-18.4
				c3.2,8.7,9.3,13,18.2,13c5.8,0,8.7-1.9,8.7-5.6c0-2.2-2.1-4-6.4-5.4c-4.3-1.4-9.4-2.8-15.3-4.2c-6-1.4-12-3.4-18-5.9
				c-6.1-2.5-11.2-6.6-15.5-12.4c-4.3-5.8-6.4-13-6.4-21.7c0-14,5.3-24.8,16-32.5c10.6-7.7,23-11.5,36.9-11.5
				c27.9,0,46.4,10.8,55.5,32.5l-39.1,14.1c-3.1-7.2-7.8-10.7-14.3-10.7C783.2,137.6,780.6,139.4,780.6,143z"/>
			<path class="st5" d="M909,228.5c-5.7,5.7-12.7,8.6-20.8,8.6c-8.2,0-15.1-2.9-20.8-8.6c-5.7-5.7-8.6-12.7-8.6-20.8
				c0-8.2,2.9-15.1,8.6-20.8c5.7-5.7,12.7-8.6,20.8-8.6c8.2,0,15.1,2.9,20.8,8.6c5.7,5.7,8.6,12.7,8.6,20.8
				C917.5,215.8,914.7,222.8,909,228.5z"/>
			<path class="st5" d="M996.1,236.8c-19.6,0-35.9-6.4-48.8-19.3c-13-12.9-19.4-28.9-19.4-48.2c0-19.3,6.5-35.3,19.4-48.2
				c12.9-12.9,29.2-19.3,48.8-19.3c12.6,0,24.2,3,34.6,9.1c10.5,6.1,18.5,14.2,24.2,24.4l-39.9,22.8c-4.3-7.2-10.6-10.7-18.9-10.7
				c-6,0-11,2.1-15,6.3c-4,4.2-6,9.4-6,15.7c0,6.3,2,11.5,6,15.7c4,4.2,9,6.3,15,6.3c8.9,0,15.2-3.7,18.9-11l39.9,23
				c-5.6,10.4-13.7,18.6-24.2,24.5C1020.3,233.8,1008.7,236.8,996.1,236.8z"/>
			<path class="st5" d="M1137,236.8c-19.1,0-35.3-6.5-48.7-19.4c-13.4-12.9-20.1-29-20.1-48.1c0-19.1,6.6-35.1,19.9-48.1
				c13.3-12.9,29.6-19.4,48.8-19.4c19.3,0,35.5,6.5,48.8,19.4c13.3,13,19.9,29,19.9,48.1c0,19.1-6.6,35.1-19.9,48.1
				C1172.5,230.3,1156.3,236.8,1137,236.8z M1121.5,185.5c4,4.2,9.2,6.3,15.5,6.3c6.3,0,11.5-2.1,15.5-6.3c4-4.2,6-9.6,6-16.2
				s-2-12.1-6-16.2c-4-4.2-9.2-6.3-15.5-6.3c-6.3,0-11.5,2.1-15.5,6.3c-4,4.2-6,9.6-6,16.2S1117.5,181.4,1121.5,185.5z"/>
		</g>
		<g>
			<g>
				<path class="st5" d="M97.4,9.9l-71.2,0c-6.8,0-12.3,5.5-12.3,12.3v25.7h13.9C18.3,62.3,13.1,79.7,14,98.4
					c2,43.3,36.2,77.8,79.5,80.2c48.4,2.7,88.6-35.5,89.3-83.2C183.3,48.4,144.5,9.9,97.4,9.9z M102.2,132.7
					c-24.4,2.4-44.7-17.9-42.3-42.3C61.7,72.3,76.2,57.8,94.4,56c24.4-2.4,44.7,17.9,42.3,42.3C134.9,116.4,120.4,130.9,102.2,132.7
					z"/>
			</g>
			<path class="st5" d="M176.1,247.1c0,5-0.6,9.9-1.8,14.6c-7,27.5-33.3,46.5-64.7,46.5H73.3v21.1H25.5v-35.1
				c0-17.9,14.5-32.4,32.4-32.5l51.2-0.1c9,0,16.3-6.9,16.3-15.4c0-8.1-6.7-14.8-15.2-15.3c-0.4-0.1-0.7-0.1-1.1-0.1
				c-0.4,0-0.7,0-1.1,0.1H62.2c-23.8,0-39.3-25.1-28.6-46.3l0,0h76c30.8,0,56.7,19.6,64.2,46.3C175.3,236.1,176.1,241.5,176.1,247.1
				z"/>
		</g>
	</g>
	<g>
		<path class="st5" d="M611.3,329.6l-21-62.5h13.4l15.3,48.1l15.2-48.1h13.5l-21.1,62.5H611.3z"/>
		<path class="st5" d="M685.8,324c-4.6,4.6-10.2,6.8-16.8,6.8c-6.6,0-12.2-2.3-16.7-6.8c-4.6-4.6-6.8-10.1-6.8-16.7
			c0-6.6,2.3-12.2,6.8-16.7c4.6-4.6,10.1-6.8,16.7-6.8c6.6,0,12.2,2.3,16.8,6.8c4.6,4.6,6.9,10.1,6.9,16.7
			C692.7,313.9,690.4,319.4,685.8,324z M660.4,316.1c2.3,2.3,5.2,3.5,8.6,3.5c3.5,0,6.3-1.2,8.7-3.5c2.3-2.3,3.5-5.3,3.5-8.8
			s-1.2-6.5-3.5-8.8c-2.3-2.3-5.2-3.5-8.7-3.5c-3.5,0-6.3,1.2-8.6,3.5c-2.3,2.3-3.4,5.3-3.4,8.8S658.1,313.8,660.4,316.1z"/>
		<path class="st5" d="M700.8,329.6v-65.2h11.5v65.2H700.8z"/>
		<path class="st5" d="M756.8,284.9h11.5v44.7h-11.5v-5.3c-3.5,4.3-8.3,6.5-14.6,6.5c-6,0-11.1-2.3-15.3-6.8
			c-4.3-4.6-6.4-10.1-6.4-16.7c0-6.6,2.1-12.2,6.4-16.7c4.3-4.6,9.4-6.8,15.3-6.8c6.3,0,11.1,2.2,14.6,6.5V284.9z M735.6,316.3
			c2.3,2.4,5.3,3.5,8.8,3.5s6.5-1.2,8.9-3.5c2.4-2.4,3.5-5.4,3.5-9.1c0-3.7-1.2-6.7-3.5-9.1c-2.4-2.4-5.3-3.5-8.9-3.5
			s-6.5,1.2-8.8,3.5c-2.3,2.4-3.5,5.4-3.5,9.1C732.1,310.9,733.2,314,735.6,316.3z"/>
		<path class="st5" d="M803.6,283.7c4.9,0,8.9,1.6,12.1,4.9c3.2,3.3,4.8,7.8,4.8,13.6v27.4H809v-26c0-3-0.8-5.3-2.4-6.8
			c-1.6-1.6-3.8-2.4-6.4-2.4c-3,0-5.4,0.9-7.1,2.8c-1.8,1.8-2.7,4.6-2.7,8.3v24.1h-11.5v-44.7h11.5v5
			C793.1,285.8,797.5,283.7,803.6,283.7z"/>
		<path class="st5" d="M864.2,267.1h11.5v62.5h-11.5v-5.3c-3.4,4.3-8.2,6.5-14.5,6.5c-6,0-11.1-2.3-15.4-6.8
			c-4.3-4.6-6.4-10.1-6.4-16.7c0-6.6,2.1-12.2,6.4-16.7c4.3-4.6,9.4-6.8,15.4-6.8c6.3,0,11.1,2.2,14.5,6.5V267.1z M843,316.3
			c2.4,2.4,5.3,3.5,8.9,3.5s6.5-1.2,8.8-3.5c2.3-2.4,3.5-5.4,3.5-9.1c0-3.7-1.2-6.7-3.5-9.1c-2.3-2.4-5.3-3.5-8.8-3.5
			s-6.5,1.2-8.9,3.5c-2.4,2.4-3.5,5.4-3.5,9.1C839.4,310.9,840.6,314,843,316.3z"/>
		<path class="st5" d="M924.3,324c-4.6,4.6-10.2,6.8-16.8,6.8c-6.6,0-12.2-2.3-16.7-6.8c-4.6-4.6-6.8-10.1-6.8-16.7
			c0-6.6,2.3-12.2,6.8-16.7c4.6-4.6,10.1-6.8,16.7-6.8c6.6,0,12.2,2.3,16.8,6.8c4.6,4.6,6.9,10.1,6.9,16.7
			C931.1,313.9,928.9,319.4,924.3,324z M898.9,316.1c2.3,2.3,5.2,3.5,8.6,3.5c3.5,0,6.3-1.2,8.7-3.5c2.3-2.3,3.5-5.3,3.5-8.8
			s-1.2-6.5-3.5-8.8c-2.3-2.3-5.2-3.5-8.7-3.5c-3.5,0-6.3,1.2-8.6,3.5c-2.3,2.3-3.4,5.3-3.4,8.8S896.6,313.8,898.9,316.1z"/>
		<path class="st5" d="M963.1,330.5v-45.5h11.5v45.5c0,6.5-1.6,11.3-4.8,14.3c-3.2,3-8.1,4.3-14.7,3.9v-11.1c2.7,0.2,4.7-0.3,6-1.4
			C962.5,335.1,963.1,333.1,963.1,330.5z M968.9,279.6c-2,0-3.6-0.7-5-2.1c-1.4-1.4-2.1-3.1-2.1-5c0-1.9,0.7-3.6,2.1-5
			c1.4-1.4,3.1-2.1,5-2.1c1.9,0,3.6,0.7,5,2.1c1.4,1.4,2.1,3.1,2.1,5c0,1.9-0.7,3.6-2.1,5C972.5,278.9,970.8,279.6,968.9,279.6z"/>
		<path class="st5" d="M1014.6,284.9h11.5v44.7h-11.5v-5c-2.8,4.2-7.2,6.3-13.3,6.3c-4.9,0-8.9-1.6-12.1-4.9
			c-3.2-3.3-4.8-7.8-4.8-13.6v-27.4H996v26c0,3,0.8,5.3,2.4,6.8c1.6,1.6,3.8,2.4,6.4,2.4c3,0,5.4-0.9,7.1-2.8
			c1.8-1.8,2.7-4.6,2.7-8.3V284.9z"/>
		<path class="st5" d="M1061.5,283.7c4.9,0,8.9,1.6,12.1,4.9c3.2,3.3,4.8,7.8,4.8,13.6v27.4h-11.5v-26c0-3-0.8-5.3-2.4-6.8
			c-1.6-1.6-3.8-2.4-6.4-2.4c-3,0-5.4,0.9-7.1,2.8c-1.8,1.8-2.7,4.6-2.7,8.3v24.1h-11.5v-44.7h11.5v5
			C1051,285.8,1055.5,283.7,1061.5,283.7z"/>
		<path class="st5" d="M1113.8,296h-10.1v18.6c0,1.5,0.4,2.7,1.2,3.4c0.8,0.7,1.9,1.1,3.4,1.2c1.5,0.1,3.3,0.1,5.5,0v10.4
			c-7.9,0.9-13.5,0.1-16.7-2.2c-3.2-2.4-4.9-6.6-4.9-12.8V296h-7.8v-11.1h7.8v-9l11.5-3.5v12.5h10.1V296z"/>
		<path class="st5" d="M1158.6,324c-4.6,4.6-10.2,6.8-16.8,6.8c-6.6,0-12.2-2.3-16.7-6.8c-4.6-4.6-6.8-10.1-6.8-16.7
			c0-6.6,2.3-12.2,6.8-16.7c4.6-4.6,10.1-6.8,16.7-6.8c6.6,0,12.2,2.3,16.8,6.8c4.6,4.6,6.9,10.1,6.9,16.7
			C1165.5,313.9,1163.2,319.4,1158.6,324z M1133.2,316.1c2.3,2.3,5.2,3.5,8.6,3.5c3.5,0,6.3-1.2,8.7-3.5c2.3-2.3,3.5-5.3,3.5-8.8
			s-1.2-6.5-3.5-8.8c-2.3-2.3-5.2-3.5-8.7-3.5c-3.5,0-6.3,1.2-8.6,3.5c-2.3,2.3-3.4,5.3-3.4,8.8S1130.9,313.8,1133.2,316.1z"/>
		<path class="st5" d="M1183.3,297.6c0,1.2,0.8,2.2,2.4,2.9c1.6,0.7,3.5,1.4,5.8,2c2.3,0.6,4.5,1.3,6.8,2.1c2.3,0.9,4.2,2.3,5.8,4.3
			c1.6,2,2.4,4.6,2.4,7.6c0,4.6-1.7,8.1-5.1,10.6c-3.4,2.5-7.7,3.7-12.8,3.7c-9.2,0-15.4-3.5-18.8-10.6l10-5.6
			c1.3,3.9,4.2,5.8,8.8,5.8c4.1,0,6.2-1.3,6.2-3.8c0-1.2-0.8-2.2-2.4-2.9c-1.6-0.7-3.5-1.4-5.8-2c-2.3-0.6-4.5-1.3-6.8-2.2
			c-2.3-0.9-4.2-2.3-5.8-4.2c-1.6-1.9-2.4-4.4-2.4-7.3c0-4.4,1.6-7.9,4.9-10.4c3.2-2.5,7.3-3.8,12.1-3.8c3.6,0,6.9,0.8,9.9,2.5
			c3,1.6,5.3,4,7.1,7l-9.8,5.4c-1.4-3-3.8-4.6-7.1-4.6c-1.5,0-2.7,0.3-3.7,1C1183.7,295.6,1183.3,296.5,1183.3,297.6z"/>
	</g>
</g>
</svg>
