<?xml version="1.0" encoding="utf-8"?>
<!-- Generator: Adobe Illustrator 23.0.0, SVG Export Plug-In . SVG Version: 6.00 Build 0)  -->
<svg version="1.1" id="Capa_1" xmlns="http://www.w3.org/2000/svg" xmlns:xlink="http://www.w3.org/1999/xlink" x="0px" y="0px"
	 viewBox="0 0 778.2 1128.8" style="enable-background:new 0 0 778.2 1128.8;" xml:space="preserve">
<style type="text/css">
	.st0{fill:#6101D1;}
</style>
<g>
	<g>
		<path class="st0" d="M295.5,1H44.4C20.4,1,1,20.4,1,44.4v90.4h49.1C16.6,185.5-1.7,247,1.3,312.8
			c7.1,152.8,127.5,274.4,280.2,282.9c170.7,9.5,312.4-125,314.6-293.2C598.3,136.7,461.3,1,295.5,1z M312.4,433.9
			c-86,8.5-157.6-63.3-149.1-149.2c6.4-63.9,57.4-115,121.3-121.3c85.9-8.5,157.7,63.1,149.2,149.1
			C427.6,376.4,376.4,427.6,312.4,433.9z"/>
	</g>
	<path class="st0" d="M572.9,837.1c0,17.7-2.2,34.9-6.5,51.4c-24.6,96.9-117.3,163.9-228,163.9h-128v74.5H41.9v-123.7
		c0-63.1,51.1-114.3,114.3-114.4l180.5-0.3c31.8,0,57.6-24.3,57.6-54.2c0-28.6-23.7-52.2-53.7-53.9c-1.2-0.2-2.5-0.2-3.9-0.2
		s-2.6,0-3.9,0.2H171.4c-83.9,0-138.5-88.3-101-163.4l0,0h268c108.5,0,199.8,69.3,226.5,163.4C570.1,798.4,572.9,817.5,572.9,837.1z
		"/>
	<path class="st0" d="M749.3,889.1c-14.5,14.5-32.1,21.7-52.8,21.7s-38.4-7.2-52.8-21.7C629.2,874.6,622,857,622,836.3
		s7.2-38.3,21.7-52.8s32.1-21.7,52.8-21.7s38.3,7.2,52.8,21.7s21.7,32.1,21.7,52.8C771,857.1,763.8,874.7,749.3,889.1z"/>
</g>
</svg>
