<?xml version="1.0" encoding="utf-8"?>
<!-- Generator: Adobe Illustrator 23.0.0, SVG Export Plug-In . SVG Version: 6.00 Build 0)  -->
<svg version="1.1" id="Capa_1" xmlns="http://www.w3.org/2000/svg" xmlns:xlink="http://www.w3.org/1999/xlink" x="0px" y="0px"
	 viewBox="0 0 200 200" style="enable-background:new 0 0 200 200;" xml:space="preserve">
<style type="text/css">
	.st0{fill:#269B19;}
	.st1{fill:#6101D1;}
	.st2{fill:#FFFFFF;}
</style>
<path class="st1" d="M100,200L100,200C44.8,200,0,155.2,0,100v0C0,44.8,44.8,0,100,0h0c55.2,0,100,44.8,100,100v0
	C200,155.2,155.2,200,100,200z"/>
<g>
	<g>
		<g>
			<path class="st2" d="M67.1,87.2h-9.6c1.6-22,20.1-39.5,42.5-39.5c17.8,0,33.8,11.2,40,27.8c0.9,2.5,3.7,3.8,6.2,2.9
				c2.5-0.9,3.8-3.7,2.9-6.2c-3.7-9.9-10.2-18.4-18.9-24.6c-8.9-6.3-19.3-9.6-30.2-9.6c-14,0-27.1,5.4-37,15.3
				C53.3,63.1,47.8,76,47.7,89.8c-5.8,3.4-9.7,9.6-9.7,16.8V123c0,10.7,8.7,19.4,19.4,19.4h9.7c2.7,0,4.8-2.2,4.8-4.8V92
				C71.9,89.3,69.7,87.2,67.1,87.2z M62.2,132.7h-4.8c-5.3,0-9.7-4.3-9.7-9.7v-16.5c0-5.3,4.3-9.7,9.7-9.7h4.8V132.7z"/>
			<path class="st2" d="M142.6,87.2h-9.7c-2.7,0-4.8,2.2-4.8,4.8v33.2v12.4v5.1c0,2.7-2.2,4.8-4.8,4.8h-14.8v0.2c-1.7-3-4.8-5-8.5-5
				c-5.4,0-9.7,4.3-9.7,9.7s4.3,9.7,9.7,9.7c3.6,0,6.8-2,8.5-5v0.2h14.8c8,0,14.5-6.5,14.5-14.5v-0.2h4.8c10.7,0,19.4-8.7,19.4-19.4
				v-16.5C162,95.9,153.3,87.2,142.6,87.2z M152.3,123c0,5.3-4.3,9.7-9.7,9.7h-4.8v-7.5V96.9h4.8c5.3,0,9.7,4.3,9.7,9.7V123z"/>
		</g>
	</g>
</g>
</svg>
