<?xml version="1.0" encoding="utf-8"?>
<!-- Generator: Adobe Illustrator 23.0.0, SVG Export Plug-In . SVG Version: 6.00 Build 0)  -->
<svg version="1.1" id="Layer_1" xmlns="http://www.w3.org/2000/svg" xmlns:xlink="http://www.w3.org/1999/xlink" x="0px" y="0px"
	 viewBox="0 0 80 80" style="enable-background:new 0 0 80 80;" xml:space="preserve">
<style type="text/css">
	.st0{fill:#FFFFFF;}
</style>
<image style="overflow:visible;" width="335" height="334" xlink:href="7E528F1F.png"  transform="matrix(0.24 0 0 0.24 -0.17 0.13)">
</image>
<g id="XMLID_1_">
	<path id="XMLID_6_" class="st0" d="M52.4,11H27.6c-9.4,0-17,7.6-17,17v24.8c0,9.4,7.6,17,17,17h24.8c9.4,0,17-7.6,17-17V27.9
		C69.4,18.6,61.8,11,52.4,11z M64,53.2c0,6.2-5,11.3-11.3,11.3H27.3c-6.2,0-11.3-5-11.3-11.3V27.8c0-6.2,5-11.3,11.3-11.3h25.4
		c6.2,0,11.3,5,11.3,11.3V53.2z"/>
	<path id="XMLID_3_" class="st0" d="M40,25.3c-8.4,0-15.2,6.8-15.2,15.2S31.6,55.7,40,55.7c8.4,0,15.2-6.8,15.2-15.2
		S48.4,25.3,40,25.3z M40,50.4c-5.5,0-9.9-4.4-9.9-9.9c0-5.5,4.4-9.9,9.9-9.9c5.5,0,9.9,4.4,9.9,9.9C49.9,46,45.5,50.4,40,50.4z"/>
	<circle id="XMLID_2_" class="st0" cx="55.7" cy="24.7" r="3.6"/>
</g>
</svg>
