<?xml version="1.0" encoding="utf-8"?>
<!-- Generator: Adobe Illustrator 23.0.0, SVG Export Plug-In . SVG Version: 6.00 Build 0)  -->
<svg version="1.1" id="Layer_1" xmlns="http://www.w3.org/2000/svg" xmlns:xlink="http://www.w3.org/1999/xlink" x="0px" y="0px"
	 viewBox="0 0 80 80" style="enable-background:new 0 0 80 80;" xml:space="preserve">
<style type="text/css">
	.st0{fill-rule:evenodd;clip-rule:evenodd;fill:#0172B1;}
	.st1{fill-rule:evenodd;clip-rule:evenodd;fill:#FEFEFE;}
</style>
<g>
	<ellipse transform="matrix(0.3776 -0.926 0.926 0.3776 -12.1432 61.9344)" class="st0" cx="40" cy="40" rx="40" ry="40"/>
	<g>
		<path class="st1" d="M42.6,36.2c0.2-0.2,0.3-0.3,0.3-0.4c2.7-3.9,6.5-5.1,11-4.4c5.2,0.8,8.5,4.4,9.3,10c0.2,1.3,0.3,2.6,0.3,4
			c0,5.5,0,11,0,16.6c0,0.6-0.1,0.8-0.8,0.8c-2.9,0-5.8,0-8.7,0c-0.6,0-0.8-0.2-0.8-0.8c0-5.1,0-10.3,0-15.4c0-1.2-0.1-2.3-0.4-3.5
			c-1.1-3.6-5.2-4.9-8.1-2.5c-1.6,1.3-2.2,3-2.2,5.1c0,4.9,0,9.7,0,14.6c0,0.6,0,1.3,0,1.9c0,0.6-0.2,0.7-0.7,0.7
			c-2.9,0-5.9,0-8.8,0c-0.5,0-0.7-0.1-0.7-0.7c0-4.4,0.1-8.8,0.1-13.1c0-5.4,0-10.8,0-16.2c0-0.6,0.1-0.8,0.7-0.8c2.9,0,5.9,0,8.8,0
			c0.5,0,0.7,0.2,0.7,0.7C42.6,33.8,42.6,34.9,42.6,36.2z"/>
		<path class="st1" d="M26.7,47.4c0,4.9,0,9.7,0,14.6c0,0.6-0.1,0.8-0.8,0.8c-2.9,0-5.8,0-8.8,0c-0.5,0-0.7-0.1-0.7-0.7
			c0-9.8,0-19.6,0-29.4c0-0.5,0.1-0.7,0.7-0.7c3,0,5.9,0,8.9,0c0.6,0,0.7,0.2,0.7,0.7C26.7,37.6,26.8,42.5,26.7,47.4z"/>
		<path class="st1" d="M21.7,17.2c3.9,0,6.5,3.1,5.5,6.7c-0.7,2.7-3.5,4.3-6.8,3.8c-3.5-0.6-5.4-4-4.1-7.2
			C17.1,18.5,19.1,17.2,21.7,17.2z"/>
	</g>
</g>
</svg>
