<svg xmlns="http://www.w3.org/2000/svg" viewBox="0 0 244.6 1180"><defs><style>.cls-1{fill:#6101d1;}</style></defs><title>Slogan vertical</title><g id="Capa_1" data-name="Capa 1"><g id="Grupo_3" data-name="Grupo 3"><g id="Grupo_2" data-name="Grupo 2"><g id="Grupo_1" data-name="Grupo 1"><path id="Trazado_1" data-name="Trazado 1" class="cls-1" d="M7.69,1114v51.42a8.84,8.84,0,0,0,8.78,8.92H35.06v-10.16a60.92,60.92,0,0,0,36.5,9.95,60.27,60.27,0,0,0,58.07-57.44,61.08,61.08,0,0,0-57.56-64.41l-2.58-.09a61.69,61.69,0,0,0-61.8,61.58Zm88.76-3.53a27.94,27.94,0,1,1-24.89-24.88A28.15,28.15,0,0,1,96.45,1110.44Z"/></g><path id="Trazado_2" data-name="Trazado 2" class="cls-1" d="M179.18,1056.93a46.42,46.42,0,0,1,10.57,1.25c19.93,5.18,33.62,24.26,33.62,46.87v26.34h15.35V1166H213.41A23.55,23.55,0,0,1,190,1142.58v-37.12a11.56,11.56,0,0,0-11.2-11.84,11.2,11.2,0,0,0-11,11v34.86a23.19,23.19,0,0,1-33.59,20.74v-55a47.76,47.76,0,0,1,33.59-46.45A34.8,34.8,0,0,1,179.18,1056.93Z"/></g><path id="Trazado_3" data-name="Trazado 3" class="cls-1" d="M188.94,1019.81a14.71,14.71,0,0,1,4.56,11,14.4,14.4,0,0,1-4.56,11,14.74,14.74,0,0,1-11,4.56,14.46,14.46,0,0,1-11-4.56,14.77,14.77,0,0,1-4.56-11,14.46,14.46,0,0,1,4.56-11,15.54,15.54,0,0,1,22,0Z"/></g><path id="Trazado_423" data-name="Trazado 423" class="cls-1" d="M188.63,935.73V907.46l-97-31.6v24.25L163,921.59,91.62,943.07v24.25Zm1.94-92.43a36.37,36.37,0,1,0,0,.7Zm-20.23,0a15.54,15.54,0,0,1-15.12,16c-.41,0-.83,0-1.24,0a15.94,15.94,0,0,1-.87-31.87H154a15.54,15.54,0,0,1,16.34,14.7c0,.41,0,.83,0,1.24Zm18.29-48.5V774H87.47V794.8Zm-69.29-86.35h6.51a26,26,0,0,0-8.45,20.64c0,18.16,15.94,33.13,36.58,33.13s36.59-15,36.59-33.13a26,26,0,0,0-8.45-20.64h6.51V687.66H119.34ZM170.89,725a15.82,15.82,0,0,1-15.1,16.52,15.59,15.59,0,0,1-1.81,0,16.5,16.5,0,1,1-.88-33H154a15.83,15.83,0,0,1,16.89,14.69A15.3,15.3,0,0,1,170.89,725ZM117.4,631.82a23.71,23.71,0,0,0,8.45,19.82h-6.51v20.79h69.29V651.65H150.8c-9.84,0-14.27-5.27-14.27-12.89a11.43,11.43,0,0,1,10.74-12.1,11.78,11.78,0,0,1,1.88,0h39.48V605.92H146.09c-18.71,0-28.69,11.92-28.69,25.91ZM91.62,541.33h34.23A26.07,26.07,0,0,0,117.4,562c0,18.15,15.94,33.12,36.58,33.12s36.59-15,36.59-33.12a26.08,26.08,0,0,0-8.46-20.65h6.51V520.55h-97Zm79.27,16.5a15.82,15.82,0,0,1-15.1,16.51,15.59,15.59,0,0,1-1.81,0,16.5,16.5,0,0,1-.88-33H154A15.83,15.83,0,0,1,170.87,556a15.44,15.44,0,0,1,0,1.8Zm19.68-85.76a36.38,36.38,0,1,0,0,.69Zm-20.23,0A15.54,15.54,0,0,1,155.22,488c-.41,0-.83,0-1.24,0a15.94,15.94,0,1,1-.86-31.87H154a15.53,15.53,0,0,1,16.34,14.69c0,.42,0,.83,0,1.25Zm-57.1-95.62A12.6,12.6,0,0,0,100.77,364a12.47,12.47,0,1,0,0,24.94,12.6,12.6,0,0,0,12.47-12.48Zm75.38,10.39c7.34,0,10.11,3.47,9.7,11.09h20c1.25-21.9-8-31.88-29.65-31.88H119.34v20.78ZM119.34,306h37.83c9.84,0,14.28,5.27,14.28,12.89A11.44,11.44,0,0,1,160.7,331a11.78,11.78,0,0,1-1.88,0H119.34v20.78h42.54c18.71,0,28.69-11.92,28.69-25.91A23.71,23.71,0,0,0,182.12,306h6.51V285.26H119.34Zm-1.94-76.63a23.71,23.71,0,0,0,8.45,19.82h-6.51V270h69.29V249.23H150.8c-9.84,0-14.27-5.26-14.27-12.89a11.44,11.44,0,0,1,10.74-12.1,11.78,11.78,0,0,1,1.88,0h39.48V203.5H146.09c-18.71,0-28.69,11.92-28.69,25.91Zm21.9-80.79h-20V162.9H99.94l6.23,20.78h13.17v11.09h20V183.68h24.53c19.4,0,27.57-7.89,24.8-35.06H169.78c.56,9.15,0,14.28-5.95,14.28H139.3ZM190.57,105a36.38,36.38,0,1,0,0,.7V105Zm-20.23,0a15.54,15.54,0,0,1-15.12,16c-.41,0-.83,0-1.24,0A15.95,15.95,0,0,1,153.11,89H154a15.54,15.54,0,0,1,16.34,14.7c0,.41,0,.83,0,1.24ZM139.56,38.18c-2.5,0-3.88-2.22-3.88-5.82a10.05,10.05,0,0,1,6.09-9.29L132.21,5.33a30.32,30.32,0,0,0-14.82,27c0,14.41,7.62,27.16,22.72,27.16,24,0,20-34.09,27.58-34.09,2.76,0,4.3,2.5,4.3,7.5a11.38,11.38,0,0,1-8.18,11.78l10.26,18c11.22-5.4,16.49-15.93,16.49-29.79,0-15-6.79-28.81-22.73-28.81-25.62,0-20.38,34.06-28.27,34.06Z"/></g></svg>