<?xml version="1.0" encoding="utf-8"?>
<!-- Generator: Adobe Illustrator 23.0.0, SVG Export Plug-In . SVG Version: 6.00 Build 0)  -->
<svg version="1.1" id="Layer_1" xmlns="http://www.w3.org/2000/svg" xmlns:xlink="http://www.w3.org/1999/xlink" x="0px" y="0px"
	 viewBox="0 0 80 80" style="enable-background:new 0 0 80 80;" xml:space="preserve">
<style type="text/css">
	.st0{fill:#1977F3;}
	.st1{fill:#FEFEFE;}
</style>
<g id="Layer_x0020_1">
	<path class="st0" d="M80,40C80,17.9,62.1,0,40,0S0,17.9,0,40c0,20,14.6,36.5,33.8,39.5v-28H23.6V40h10.2v-8.8
		c0-10,6-15.6,15.1-15.6c4.4,0,9,0.8,9,0.8v9.8h-5c-5,0-6.5,3.1-6.5,6.2V40h11.1l-1.8,11.6h-9.3v28C65.4,76.5,80,60,80,40z"/>
	<path class="st1" d="M55.6,51.6L57.3,40H46.2v-7.5c0-3.2,1.5-6.2,6.5-6.2h5v-9.8c0,0-4.6-0.8-9-0.8c-9.1,0-15.1,5.5-15.1,15.6V40
		H23.6v11.6h10.2v28c2,0.3,4.1,0.5,6.2,0.5s4.2-0.2,6.2-0.5v-28H55.6z"/>
</g>
</svg>
