<?xml version="1.0" encoding="utf-8"?>
<!-- Generator: Adobe Illustrator 23.0.0, SVG Export Plug-In . SVG Version: 6.00 Build 0)  -->
<svg version="1.1" id="Capa_1" xmlns="http://www.w3.org/2000/svg" xmlns:xlink="http://www.w3.org/1999/xlink" x="0px" y="0px"
	 viewBox="0 0 200 200" style="enable-background:new 0 0 200 200;" xml:space="preserve">
<style type="text/css">
	.st0{fill:#269B19;}
	.st1{fill:#6101D1;}
	.st2{fill:#FFFFFF;}
</style>
<path class="st0" d="M100,200L100,200C44.8,200,0,155.2,0,100v0C0,44.8,44.8,0,100,0h0c55.2,0,100,44.8,100,100v0
	C200,155.2,155.2,200,100,200z"/>
<g>
	<path id="WhatsApp_1_" class="st2" d="M163,98.4c0,33.9-27.7,61.4-61.9,61.4c-10.8,0-21-2.8-30-7.7L37,163l11.3-32.9
		c-5.6-9.2-8.9-20.1-8.9-31.6C39.3,64.5,67,37,101.1,37S163,64.5,163,98.4z M101.1,46.7c-28.7,0-52,23.2-52,51.6
		c0,11.4,3.7,21.8,10,30.2l-6.5,19.2l20-6.3c8.2,5.4,18.1,8.6,28.6,8.6c28.6,0,52-23.2,52-51.6S129.9,46.7,101.1,46.7z M132.4,112.5
		c-0.4-0.5-1.4-1-2.9-1.8c-1.5-0.8-9-4.3-10.4-4.9c-1.4-0.5-2.4-0.8-3.4,0.8c-1,1.5-3.9,4.9-4.8,5.8c-0.9,1-1.8,1.1-3.2,0.4
		c-1.5-0.8-6.5-2.4-12.1-7.5c-4.4-3.9-7.6-9-8.3-10.4c-0.9-1.5-0.1-2.4,0.8-3c0.8-0.8,1.5-1.8,2.3-2.7c0.8-0.9,1-1.5,1.5-2.5
		s0.3-1.8-0.1-2.7c-0.4-0.8-3.4-8.1-4.7-11.3c-1.3-2.9-2.5-2.5-3.4-2.5s-1.9-0.1-2.9-0.1s-2.7,0.4-4,1.8c-1.4,1.5-5.3,5.2-5.3,12.7
		s5.4,14.5,6.2,15.6c0.8,1,10.5,16.7,25.9,22.6c15.4,6.1,15.4,4,18.2,3.8s9-3.7,10.2-7.1C132.8,116.1,132.8,113.2,132.4,112.5z"/>
</g>
</svg>
